<svg width="30" height="30" viewBox="0 0 30 30" fill="none" xmlns="http://www.w3.org/2000/svg">
<path d="M16.6496 9L8.05222 18.2592C8.00896 18.3059 7.97773 18.3649 7.96286 18.4283L7.00993 22.5473C6.98142 22.6713 7.01525 22.8031 7.09928 22.8936C7.16286 22.9621 7.24949 23 7.3381 23C7.36525 23 7.39301 22.9964 7.42003 22.9891L11.2449 21.9627C11.3045 21.9467 11.3587 21.9132 11.4019 21.8666L20 12.6081L16.6496 9Z" fill="#6688FF"/>
<path d="M21.5063 8.4359L20.5527 7.47929C19.9154 6.83993 18.8046 6.84055 18.1681 7.47929L17 8.65109L20.3382 12L21.5063 10.8282C21.8246 10.509 22 10.084 22 9.63211C22 9.18019 21.8246 8.75527 21.5063 8.4359Z" fill="#6688FF"/>
</svg>
