<svg width="30" height="30" viewBox="0 0 30 30" fill="none" xmlns="http://www.w3.org/2000/svg">
<path d="M23.6667 9H6.33333C5.597 9 5 8.32838 5 7.5C5 6.67162 5.597 6 6.33333 6H23.6667C24.403 6 25 6.67162 25 7.5C25 8.32838 24.403 9 23.6667 9Z" fill="#6688FF"/>
<path d="M23.6667 23.6667H6.33333C5.597 23.6667 5 22.9951 5 22.1667C5 21.3383 5.597 20.6667 6.33333 20.6667H23.6667C24.403 20.6667 25 21.3383 25 22.1667C25 22.9951 24.403 23.6667 23.6667 23.6667Z" fill="#6688FF"/>
<path d="M23.6667 16H6.33333C5.597 16 5 15.3284 5 14.5C5 13.6716 5.597 13 6.33333 13H23.6667C24.403 13 25 13.6716 25 14.5C25 15.3284 24.403 16 23.6667 16Z" fill="#6688FF"/>
</svg>
